<?xml version="1.0" standalone="no"?>
<!DOCTYPE svg PUBLIC "-//W3C//DTD SVG 20010904//EN"
 "http://www.w3.org/TR/2001/REC-SVG-20010904/DTD/svg10.dtd">
<svg version="1.0" xmlns="http://www.w3.org/2000/svg"
 width="1080.000000pt" height="1350.000000pt" viewBox="0 0 1080.000000 1350.000000"
 preserveAspectRatio="xMidYMid meet">

<g transform="translate(0.000000,1350.000000) scale(0.100000,-0.100000)"
fill="#000000" stroke="none">
<path d="M5946 10868 c-5 -17 -29 -142 -56 -288 -11 -63 -25 -136 -31 -162 -6
-26 -15 -71 -20 -100 -5 -29 -19 -108 -31 -175 -12 -67 -20 -124 -18 -126 3
-3 20 -8 38 -12 27 -5 32 -4 32 12 0 10 5 35 11 56 l10 39 34 -48 c20 -28 56
-60 87 -78 50 -29 59 -31 160 -31 95 0 110 2 137 23 16 12 34 22 40 22 23 0
91 95 112 157 69 208 -58 404 -274 420 -73 6 -146 -14 -170 -45 -6 -10 -20
-18 -30 -20 -21 -4 -21 -4 14 174 11 55 19 121 17 145 -3 40 -6 44 -31 47 -16
2 -29 -2 -31 -10z m335 -393 c24 -17 57 -50 74 -74 27 -39 30 -50 30 -124 0
-87 -19 -142 -68 -196 -30 -33 -115 -71 -158 -71 -56 0 -131 29 -170 67 -90
85 -104 186 -43 309 19 40 43 75 52 78 9 3 33 15 52 26 29 18 48 21 112 18 66
-3 82 -7 119 -33z"/>
<path d="M4672 10796 c-19 -22 -35 -57 -45 -98 -8 -35 -26 -101 -40 -148 -13
-47 -34 -123 -47 -170 -55 -207 -73 -258 -89 -253 -9 3 -22 13 -29 22 -7 9
-116 120 -242 247 -213 213 -232 230 -260 226 -35 -5 -37 -19 -15 -95 27 -90
43 -149 65 -242 12 -49 28 -107 36 -128 8 -20 14 -47 14 -60 0 -12 7 -35 15
-51 8 -15 15 -40 15 -54 0 -35 40 -166 54 -174 16 -11 30 -10 49 5 17 13 21
-5 -34 197 -12 41 -27 100 -34 130 -25 105 -45 185 -54 215 -15 50 -23 95 -16
95 3 0 107 -101 230 -225 123 -124 229 -225 234 -225 19 0 39 44 65 140 30
112 39 144 77 271 16 53 32 120 36 148 6 52 28 87 37 60 15 -43 59 -200 65
-234 4 -22 13 -56 19 -75 13 -42 40 -146 54 -215 16 -78 32 -103 63 -97 15 2
29 10 31 17 5 11 -58 271 -86 360 -6 17 -30 111 -54 210 -49 198 -61 235 -75
235 -5 0 -22 -15 -39 -34z"/>
<path d="M6790 10650 c-11 -11 -20 -29 -20 -40 0 -25 34 -60 58 -60 48 0 70
76 30 104 -30 21 -44 20 -68 -4z"/>
<path d="M5232 10632 c-145 -58 -222 -224 -177 -384 32 -116 108 -188 227
-215 63 -14 77 -14 149 0 111 23 168 66 214 164 21 43 25 67 25 144 0 79 -4
100 -26 146 -34 68 -103 128 -171 148 -68 20 -186 19 -241 -3z m263 -83 c28
-20 55 -46 62 -60 36 -72 43 -97 43 -153 -1 -89 -38 -159 -114 -211 -56 -38
-61 -40 -132 -38 -52 1 -78 6 -89 17 -9 9 -20 16 -25 16 -18 0 -72 54 -91 91
-25 49 -34 142 -20 195 16 60 63 125 113 156 39 25 51 27 123 25 74 -2 84 -5
130 -38z"/>
<path d="M7031 10283 c-63 -142 -124 -280 -137 -308 -109 -238 -108 -235 -69
-253 14 -7 28 -12 31 -12 2 0 18 30 35 68 17 37 41 90 54 117 12 28 37 84 55
125 18 41 46 104 62 140 16 36 33 74 38 85 4 11 23 52 40 90 49 105 70 156 70
165 0 15 -31 40 -48 40 -13 0 -47 -68 -131 -257z"/>
<path d="M6715 10401 c-8 -16 -28 -69 -44 -117 -16 -49 -55 -161 -87 -249 -31
-88 -57 -169 -58 -180 -1 -16 6 -21 35 -23 l36 -3 38 108 c121 348 155 449
155 460 0 6 -14 16 -30 22 -28 9 -31 8 -45 -18z"/>
<path d="M7285 10056 c-108 -57 -187 -181 -187 -296 -1 -116 55 -207 176 -285
33 -22 141 -37 199 -28 32 5 38 9 35 27 -3 18 -10 21 -53 22 -99 2 -205 62
-253 142 -21 38 -26 58 -25 111 0 36 5 78 11 93 l11 27 113 -70 c62 -39 122
-76 133 -82 10 -7 49 -31 86 -54 36 -24 71 -43 76 -43 6 0 16 -7 23 -15 21
-25 47 8 72 88 44 145 -11 278 -147 357 -32 19 -59 24 -130 28 -82 3 -94 1
-140 -22z m233 -63 c96 -46 144 -145 121 -251 -6 -29 -14 -54 -18 -56 -6 -4
-181 98 -345 201 -42 25 -42 38 -4 73 63 58 164 72 246 33z"/>
<path d="M2883 9798 c-41 -43 -73 -113 -73 -162 l0 -40 -33 32 c-36 35 -58 40
-76 18 -10 -11 -10 -20 0 -38 15 -27 333 -416 362 -441 19 -17 21 -17 44 4 12
13 23 26 23 30 0 4 -49 66 -109 137 -128 152 -151 192 -151 261 0 60 32 134
67 152 28 15 28 17 0 52 l-22 28 -32 -33z"/>
<path d="M3610 9663 c-56 -21 -25 -103 39 -103 31 0 45 12 55 47 13 42 -43 75
-94 56z"/>
<path d="M8555 9443 c-11 -3 -33 -11 -50 -18 -39 -16 -236 -75 -251 -75 -6 0
-17 -7 -24 -15 -7 -8 -25 -15 -40 -15 -28 0 -172 -42 -202 -60 -9 -5 -47 -16
-84 -25 -37 -8 -72 -19 -78 -24 -6 -5 -28 -11 -48 -15 -50 -9 -56 -23 -25 -54
l26 -26 117 38 c97 32 118 36 129 25 7 -8 78 -88 158 -178 l145 -164 -13 -31
c-8 -17 -28 -61 -44 -99 -17 -37 -31 -78 -31 -91 0 -24 36 -60 50 -51 4 3 24
44 45 92 20 49 47 111 60 138 12 28 57 131 99 230 42 99 83 194 91 210 8 17
26 58 40 93 l26 63 -21 29 c-21 29 -33 33 -75 23z m-29 -160 c-67 -156 -159
-358 -166 -366 -4 -5 -58 49 -120 120 -62 70 -122 138 -133 150 -16 19 -18 25
-7 38 7 8 24 15 39 15 29 0 172 44 213 66 14 8 37 14 50 15 12 0 43 8 68 19
25 10 55 18 67 19 22 1 22 0 -11 -76z"/>
<path d="M2470 9361 c-94 -20 -190 -106 -224 -200 -24 -68 -18 -168 13 -230
31 -59 111 -138 169 -164 68 -31 179 -30 247 2 118 55 189 149 201 264 l7 67
-31 0 c-29 0 -31 -3 -37 -47 -12 -86 -54 -150 -131 -202 -70 -48 -182 -51
-238 -6 l-30 24 55 65 c30 35 107 124 173 196 l119 131 -21 22 c-54 58 -188
96 -272 78z m158 -86 c17 -8 32 -19 32 -25 0 -25 -285 -344 -299 -335 -5 3
-21 26 -35 51 -52 93 -22 219 68 287 61 47 153 55 234 22z"/>
<path d="M8675 8715 c-88 -51 -178 -103 -200 -114 -22 -12 -57 -31 -78 -44
-20 -12 -65 -37 -100 -56 -34 -18 -93 -53 -130 -77 l-68 -44 22 -29 21 -29 41
25 c23 13 49 28 57 33 72 42 181 100 189 100 5 0 3 -26 -5 -62 -14 -58 -13
-67 6 -129 23 -77 94 -165 164 -202 55 -29 213 -32 243 -4 11 9 25 17 32 17
31 0 123 86 154 144 18 33 22 58 22 131 0 78 -4 97 -27 141 -15 28 -42 66 -60
84 -34 34 -120 80 -151 80 -16 0 -16 2 -1 25 9 14 24 25 33 25 32 0 41 20 25
51 -8 16 -18 29 -22 28 -4 0 -79 -42 -167 -94z m162 -106 c38 -12 98 -76 124
-133 51 -113 -8 -249 -139 -314 -52 -27 -148 -30 -198 -6 -50 24 -109 93 -133
158 -18 49 -20 64 -10 99 43 166 190 246 356 196z"/>
<path d="M2017 8776 c-69 -19 -136 -79 -175 -158 -38 -74 -50 -135 -34 -175 6
-16 13 -41 17 -57 l6 -28 -46 26 c-49 27 -76 24 -89 -10 -9 -22 0 -32 50 -57
50 -25 195 -109 300 -174 39 -23 77 -43 84 -43 7 0 22 -7 32 -17 10 -9 27 -21
38 -27 10 -6 64 -37 118 -68 55 -32 105 -58 111 -58 12 0 31 32 31 52 0 8 -15
22 -32 31 -18 9 -40 21 -48 26 -8 6 -55 34 -103 62 -49 29 -90 56 -93 60 -2 4
19 14 48 23 68 20 141 82 175 150 23 44 27 63 27 141 0 80 -3 95 -27 137 -35
59 -106 124 -161 149 -57 25 -168 33 -229 15z m165 -76 c49 -14 115 -65 152
-118 26 -36 30 -51 30 -110 1 -56 -4 -76 -29 -122 -52 -96 -159 -146 -257
-119 -69 18 -114 45 -151 91 -80 99 -78 207 5 313 30 38 50 53 81 62 54 14
122 16 169 3z"/>
<path d="M1667 8046 c-90 -33 -158 -115 -191 -228 -19 -66 -20 -99 -5 -147 33
-106 86 -170 177 -213 55 -26 76 -31 143 -31 67 0 86 5 136 30 74 39 137 113
159 190 20 70 15 181 -11 236 -24 52 -91 117 -151 146 -61 31 -197 40 -257 17z
m189 -76 c49 -12 112 -57 141 -102 25 -37 28 -51 28 -123 0 -73 -3 -87 -30
-131 -19 -30 -49 -60 -79 -79 -44 -27 -57 -30 -125 -29 -87 2 -146 28 -200 89
-31 36 -71 116 -71 144 0 22 35 112 58 150 50 82 154 113 278 81z"/>
<path d="M9165 8023 c-22 -8 -53 -21 -70 -28 -16 -7 -52 -18 -80 -24 -27 -6
-66 -18 -85 -25 -19 -7 -78 -26 -130 -42 -52 -15 -104 -33 -115 -39 -11 -7
-36 -15 -55 -18 -19 -4 -72 -19 -117 -33 -80 -25 -83 -27 -77 -53 12 -49 23
-50 129 -12 77 27 207 63 212 58 3 -3 -5 -23 -18 -44 -20 -32 -23 -50 -23
-123 0 -71 4 -93 26 -135 28 -55 112 -139 153 -155 15 -6 69 -10 122 -10 82 0
104 4 150 26 30 14 56 31 59 39 3 8 14 17 24 20 38 12 100 142 100 208 0 52
-39 163 -71 203 -34 43 -103 94 -128 94 -10 0 -5 8 14 20 17 11 40 20 52 20
29 0 36 13 22 44 -14 30 -34 32 -94 9z m4 -157 c45 -29 89 -79 108 -123 20
-49 17 -147 -7 -192 -72 -143 -277 -187 -390 -85 -132 119 -103 323 56 399 71
34 179 34 233 1z"/>
<path d="M1086 7349 c-3 -18 -3 -36 1 -39 5 -4 62 -17 128 -29 66 -12 159 -31
208 -42 48 -11 118 -22 155 -25 37 -3 81 -12 99 -20 17 -8 39 -14 50 -14 10 0
60 -9 112 -20 52 -11 97 -20 101 -20 5 0 11 12 14 26 8 32 -8 54 -40 54 -14 0
-32 4 -42 10 -18 10 -194 44 -322 62 -41 5 -83 14 -92 19 -22 11 -132 29 -181
29 -21 0 -50 6 -65 14 -15 8 -48 17 -73 21 -46 7 -46 7 -53 -26z"/>
<path d="M1484 7015 c-10 -8 -29 -15 -40 -15 -31 0 -115 -79 -141 -132 -62
-123 -27 -291 78 -376 38 -31 120 -61 186 -68 78 -10 181 26 238 81 56 55 76
94 91 183 23 128 -21 272 -82 272 -36 0 -39 -23 -11 -72 49 -84 44 -219 -11
-288 -54 -67 -167 -124 -185 -92 -4 7 7 295 17 445 l5 77 -62 0 c-40 0 -70 -5
-83 -15z m72 -237 c-11 -291 -13 -295 -93 -250 -95 53 -133 131 -120 244 11
88 109 184 191 187 l29 1 -7 -182z"/>
<path d="M8918 6865 c-5 -5 -8 -106 -8 -226 0 -189 3 -225 20 -282 11 -35 27
-70 35 -77 8 -7 15 -18 15 -26 0 -24 96 -110 156 -140 56 -27 66 -29 184 -29
116 1 129 3 184 28 59 28 176 134 176 160 0 6 7 26 16 42 36 67 44 132 44 340
l0 205 -152 0 c-84 0 -268 3 -408 6 -140 4 -258 3 -262 -1z m736 -88 c17 -13
18 -27 14 -183 -5 -146 -9 -177 -29 -228 -26 -67 -99 -149 -153 -171 -19 -8
-37 -19 -41 -25 -4 -6 -52 -10 -115 -10 -98 0 -113 3 -160 27 -68 35 -143 119
-171 191 -20 50 -22 76 -23 217 -1 88 2 168 6 178 7 16 32 17 331 17 253 0
327 -3 341 -13z"/>
<path d="M1272 6288 c3 -30 7 -33 88 -59 47 -15 119 -37 160 -48 41 -12 89
-26 105 -32 17 -6 65 -20 108 -33 42 -13 80 -26 84 -29 9 -9 -18 -38 -47 -51
-25 -11 -65 -34 -307 -179 -129 -76 -133 -80 -133 -112 0 -19 3 -36 8 -38 4
-3 32 10 62 29 30 18 64 38 76 43 18 8 79 46 109 68 19 14 69 42 101 57 17 8
36 22 44 30 7 9 17 16 22 16 6 0 46 21 89 48 78 47 78 47 79 90 0 48 -14 58
-99 69 -25 3 -53 11 -61 18 -8 6 -44 20 -80 30 -36 10 -94 26 -130 37 -36 11
-92 27 -125 35 -33 9 -72 22 -87 29 -14 8 -36 14 -48 14 -18 0 -21 -5 -18 -32z"/>
<path d="M9029 5966 c-14 -7 -38 -16 -53 -20 -42 -10 -121 -90 -147 -149 -20
-44 -24 -68 -24 -157 0 -87 3 -111 20 -137 21 -36 32 -40 60 -19 18 13 18 15
2 49 -27 55 -23 170 8 232 32 67 51 86 110 112 50 23 68 26 116 24 23 -1 26
-5 24 -28 -1 -16 -8 -41 -14 -56 -6 -16 -11 -33 -11 -39 0 -10 -25 -117 -60
-262 -22 -90 -25 -132 -9 -142 6 -3 43 -6 82 -6 114 0 218 60 267 152 20 38
40 114 40 155 0 51 -31 136 -66 182 -31 41 -108 93 -138 93 -12 1 -32 7 -46
15 -32 18 -127 19 -161 1z m253 -119 c33 -24 69 -82 87 -139 10 -30 9 -47 -5
-95 -21 -74 -42 -103 -102 -142 -39 -25 -60 -31 -101 -31 l-53 0 5 38 c3 20
17 87 31 147 14 61 29 133 32 160 8 73 23 98 52 90 13 -3 37 -16 54 -28z"/>
<path d="M1866 5683 c-5 -11 6 -30 32 -57 74 -77 94 -120 95 -205 2 -89 -17
-135 -79 -191 -65 -59 -67 -57 -118 108 -26 81 -56 179 -67 217 -26 90 -46
135 -59 135 -23 0 -126 -60 -151 -87 -60 -66 -96 -164 -85 -233 18 -115 79
-206 168 -248 66 -32 213 -31 283 2 66 31 117 79 149 141 35 67 37 194 4 280
-40 105 -151 194 -172 138z m-193 -146 c10 -34 23 -73 29 -87 6 -14 16 -47 23
-75 8 -27 24 -83 36 -123 12 -39 19 -75 15 -80 -15 -14 -102 -5 -148 15 -58
27 -103 85 -119 160 -14 63 -4 121 33 176 20 31 80 76 103 76 6 1 18 -27 28
-62z"/>
<path d="M8941 5190 l-295 -5 -19 -33 -19 -32 38 -43 c21 -23 97 -105 168
-181 271 -289 252 -271 270 -257 36 30 19 55 -217 303 -71 76 -136 146 -143
157 -14 19 -9 19 264 23 297 3 326 8 320 51 -4 26 26 25 -367 17z"/>
<path d="M1875 4986 c-90 -29 -139 -61 -199 -127 -55 -61 -74 -95 -92 -164
-28 -105 -11 -206 57 -340 65 -128 163 -294 174 -294 6 0 46 22 90 49 44 27
107 63 140 81 33 17 65 35 70 39 6 4 30 19 55 33 98 54 344 197 352 205 6 6
-13 48 -48 108 -32 55 -71 124 -88 154 -77 141 -165 219 -292 259 -85 26 -131
26 -219 -3z m215 -75 c104 -35 172 -100 248 -237 21 -38 51 -90 65 -115 31
-55 32 -54 -73 -113 -36 -20 -72 -41 -80 -46 -8 -5 -76 -43 -150 -85 -169 -95
-169 -96 -201 -117 -64 -41 -68 -39 -139 84 -102 177 -112 206 -108 318 3 92
5 98 43 155 47 70 110 120 192 151 73 27 132 29 203 5z"/>
<path d="M8505 4736 c-66 -21 -100 -43 -146 -94 -71 -79 -90 -127 -87 -219 3
-76 4 -78 28 -78 24 0 25 3 31 71 4 51 12 83 31 115 52 88 140 149 216 149 54
0 117 -32 108 -55 -4 -12 -116 -187 -241 -380 l-33 -50 49 -27 c27 -16 72 -32
101 -36 63 -9 156 3 179 23 8 8 20 15 26 15 15 0 100 96 120 134 21 40 29 172
13 220 -6 20 -29 58 -50 85 -89 112 -229 164 -345 127z m282 -163 c79 -108 75
-213 -11 -312 -24 -27 -137 -81 -171 -81 -12 0 -28 6 -34 14 -7 8 -23 17 -36
20 -14 4 -25 12 -25 18 0 6 28 55 63 108 34 52 67 103 72 112 52 83 100 148
110 148 6 0 20 -12 32 -27z"/>
<path d="M8058 4243 c-8 -10 -18 -23 -21 -29 -4 -7 30 -44 81 -88 48 -42 96
-84 107 -93 11 -10 58 -51 105 -91 47 -41 145 -126 218 -190 74 -64 141 -117
150 -117 9 0 23 13 32 28 14 26 14 29 -5 43 -20 14 -106 88 -291 249 -51 44
-113 97 -138 118 -25 21 -82 72 -128 113 -46 40 -86 74 -89 74 -3 0 -13 -8
-21 -17z"/>
<path d="M2685 4018 c-76 -39 -133 -96 -167 -165 -28 -57 -32 -77 -32 -138 1
-85 26 -144 91 -211 57 -58 109 -83 194 -92 l71 -7 -122 -133 -122 -134 27
-28 27 -28 67 71 c38 40 101 110 142 156 41 46 108 120 150 165 180 191 233
257 223 274 -24 38 -39 36 -82 -9 l-41 -44 -1 60 c-1 109 -62 200 -172 256
-49 25 -69 29 -135 29 -59 -1 -88 -6 -118 -22z m242 -81 c144 -91 166 -252 52
-382 -116 -132 -312 -103 -398 60 -29 54 -28 134 1 193 27 53 117 138 161 152
53 16 139 5 184 -23z"/>
<path d="M7808 3956 c-41 -15 -105 -62 -142 -107 -73 -86 -90 -218 -42 -320
31 -64 102 -137 166 -171 67 -34 186 -33 255 4 132 69 189 158 189 293 0 84
-16 129 -70 202 -28 37 -95 85 -144 101 -44 16 -166 14 -212 -2z m206 -81 c82
-39 156 -151 156 -234 -1 -100 -92 -208 -195 -231 -169 -38 -340 142 -296 310
21 80 84 146 160 171 40 13 132 5 175 -16z"/>
<path d="M7232 3797 l-22 -23 40 -68 c22 -38 40 -71 40 -75 0 -3 15 -30 34
-58 19 -29 37 -62 41 -73 6 -18 4 -19 -20 -10 -14 5 -59 10 -99 10 -84 0 -143
-25 -210 -88 -91 -87 -114 -228 -57 -349 56 -118 147 -183 267 -191 62 -4 79
-1 129 22 31 14 74 39 95 56 38 30 84 110 95 165 l6 29 32 -51 c32 -51 32 -51
60 -37 15 8 27 19 27 24 0 10 -60 120 -150 275 -29 50 -68 119 -88 155 -19 36
-39 70 -43 76 -5 6 -21 33 -36 60 -79 142 -99 174 -109 174 -6 0 -20 -10 -32
-23z m103 -368 c83 -21 162 -123 172 -223 10 -101 -31 -178 -125 -233 -37 -22
-58 -27 -111 -27 -36 0 -77 6 -89 13 -83 45 -162 164 -162 243 0 24 11 65 24
93 55 116 164 166 291 134z"/>
<path d="M3337 3573 c-4 -3 -7 -19 -7 -35 l0 -28 71 0 c122 0 216 -66 259
-180 22 -58 22 -60 5 -115 -10 -30 -22 -55 -27 -55 -10 0 -258 144 -353 205
-85 55 -91 57 -107 37 -23 -26 -33 -51 -48 -116 -12 -52 -12 -66 3 -123 20
-77 43 -111 109 -164 84 -66 191 -86 278 -51 100 40 165 104 203 200 27 66 23
176 -8 238 -58 117 -179 194 -302 194 -39 0 -73 -3 -76 -7z m32 -325 c255
-152 250 -148 209 -185 -53 -46 -94 -63 -157 -63 -55 0 -69 4 -117 36 -74 49
-107 107 -108 188 0 54 15 106 30 106 3 0 67 -37 143 -82z"/>
<path d="M4069 3173 c-25 -37 -97 -142 -159 -233 -323 -470 -301 -429 -240
-443 23 -5 32 4 97 101 97 145 322 472 343 500 18 22 18 22 29 -41 6 -35 11
-109 11 -165 0 -55 5 -192 10 -304 11 -203 11 -203 38 -226 15 -12 34 -21 42
-19 18 3 72 77 347 477 47 69 89 126 93 128 13 5 20 -40 20 -127 0 -98 29
-600 35 -619 3 -8 17 -12 37 -10 l33 3 -2 80 c-6 174 -24 605 -29 692 l-6 93
-40 11 c-49 13 -41 20 -144 -131 -43 -63 -103 -150 -133 -192 -31 -42 -87
-122 -124 -178 -38 -56 -72 -99 -75 -95 -12 11 -40 464 -42 656 0 66 -19 96
-66 105 -28 5 -33 2 -75 -63z"/>
<path d="M6490 3197 c-90 -31 -150 -81 -189 -155 -10 -19 -9 -23 13 -33 22
-10 29 -6 83 47 44 45 70 62 106 72 96 25 181 12 245 -38 29 -24 62 -69 62
-86 0 -6 -53 -29 -117 -51 -118 -41 -149 -51 -295 -99 -61 -19 -78 -29 -78
-44 0 -10 4 -21 9 -25 5 -3 12 -19 16 -35 9 -41 85 -116 148 -145 71 -33 147
-33 230 0 123 51 191 151 190 285 -1 122 -59 227 -161 286 -40 24 -59 28 -137
31 -53 1 -104 -2 -125 -10z m354 -300 c12 -32 -14 -114 -48 -159 -64 -83 -190
-113 -281 -67 -51 25 -105 83 -105 110 0 18 5 20 190 84 123 42 199 64 220 61
8 0 19 -14 24 -29z"/>
<path d="M6032 3072 c-10 -7 -10 -20 -2 -58 30 -146 50 -272 50 -315 0 -108
-55 -176 -172 -213 -20 -6 -26 -60 -8 -71 15 -9 112 35 147 68 18 16 38 43 46
59 l14 30 7 -39 c13 -70 15 -73 53 -73 l36 0 -6 43 c-16 120 -36 227 -46 245
-6 12 -11 40 -11 64 0 36 -18 159 -36 246 -3 16 -11 22 -32 22 -15 0 -33 -4
-40 -8z"/>
</g>
</svg>
